<svg id="Слой_1" data-name="Слой 1" xmlns="http://www.w3.org/2000/svg" viewBox="0 0 22 19"><defs><style>.cls-1{fill:none;fill-rule:evenodd;}</style></defs><title>heart</title><path class="cls-1" d="M307.22,413.26a6.17,6.17,0,0,0-8.61,0l-0.6.59-0.61-.6a6.16,6.16,0,0,0-8.61,0,5.9,5.9,0,0,0,0,8.46l8.76,8.6a0.63,0.63,0,0,0,.89,0l8.78-8.59A5.92,5.92,0,0,0,307.22,413.26Zm-0.9,7.59L298,429l-8.32-8.17a4.69,4.69,0,0,1,0-6.71,4.89,4.89,0,0,1,6.83,0l1.05,1a0.64,0.64,0,0,0,.89,0l1-1a4.89,4.89,0,0,1,6.83,0A4.7,4.7,0,0,1,306.33,420.86Z" transform="translate(-287 -411.5)"/></svg>