<svg id="Слой_1" data-name="Слой 1" xmlns="http://www.w3.org/2000/svg" viewBox="0 0 22.01 22"><defs><style>.cls-1{fill:none;fill-rule:evenodd;}</style></defs><title>services</title><path class="cls-1" d="M297.44,429.84h0a0.43,0.43,0,0,0,.43-0.43,0.4,0.4,0,0,0-.14-0.31l0.06,0.16a0.43,0.43,0,0,1-.25.55Zm0.15,0a0.43,0.43,0,0,0,.25-0.55l-0.06-.16a0.4,0.4,0,0,1,.14.31,0.43,0.43,0,0,1-.43.43h0Zm-1.89-4.59-0.09.41A0.41,0.41,0,0,1,295.69,425.23Zm2.76-13.16v0l-0.08-.06Zm-0.09,0h0l-1-.59A7.17,7.17,0,0,1,298.36,412Zm-1.21-.69,0.15,0.09-0.23-.1-0.1-.06Zm1.21,0.69h0l-1-.59A7.17,7.17,0,0,1,298.36,412Zm0.09,0v0l-0.08-.06Zm-1.3-.72,0.15,0.09-0.23-.1-0.1-.06Zm-10.06,1.22a0.43,0.43,0,0,1,.34-0.16h3.11a6.49,6.49,0,0,1,2.32-2c1.9-1,4.53.1,4.65,0.15l0,0,0.12,0.07h0a5.3,5.3,0,0,1,2,1.49c0.94,1.33,1.6,3.24,1,4.49a2,2,0,0,1-1.28,1,18,18,0,0,0,3.25,6.33c1.37,1.67,3.41,4.7,3.4,6.53a2.12,2.12,0,0,0,.86-0.79,3.46,3.46,0,0,0-.06-2.93,2.21,2.21,0,0,1,.18-2.26,1.75,1.75,0,0,1,1.62-.6,0.42,0.42,0,0,1,.36.48,0.43,0.43,0,0,1-.48.36,0.91,0.91,0,0,0-.84.29,1.47,1.47,0,0,0,0,1.43,4.24,4.24,0,0,1,0,3.67,3.18,3.18,0,0,1-2,1.4,1.41,1.41,0,0,1-1.07.4H294.13a0.42,0.42,0,0,1-.34-0.17,2.1,2.1,0,0,1-.37-2c0.29-.59,1-0.89,2.19-0.89h1.22l-1.22-3.34v0l0.09-.41a0.38,0.38,0,0,1,.17-0.12,0.42,0.42,0,0,1,.54.25l1.18,3.22,0.19,0.53,0.06,0.16a0.43,0.43,0,0,1-.25.55l-0.15,0h-1.83a1.67,1.67,0,0,0-1.43.42,1.13,1.13,0,0,0,.19.89H304.6a0.48,0.48,0,0,0,.53-0.23c0.36-.77-0.73-3.42-3.13-6.35a18.58,18.58,0,0,1-3.22-6c-0.09-.26-0.16-0.5-0.22-0.73h-0.26a3.74,3.74,0,0,1-1-.13,2.2,2.2,0,0,1-1.3-.87c-0.65-.94-0.59-2.44.15-4.47a0.43,0.43,0,1,1,.8.3c-0.63,1.7-.72,3-0.25,3.68a1.36,1.36,0,0,0,.78.52,2.77,2.77,0,0,0,.85.11,1.66,1.66,0,0,0,1.62-.71c0.45-.88-0.11-2.48-0.9-3.6a2.7,2.7,0,0,0-.58-0.57v0l-0.09,0a7.21,7.21,0,0,0-1.05-.6h0l-0.15-.09-0.18-.07c-0.6-.22-2.43-0.79-3.71-0.1a5.2,5.2,0,0,0-2.1,1.83,0.42,0.42,0,0,1-.38.24H288l0.63,2.34a3.3,3.3,0,0,0,.74.61h0.1a5.94,5.94,0,0,0,.83-0.06A3.59,3.59,0,0,0,291,416a1.08,1.08,0,0,0,.76-0.69h0a0.88,0.88,0,0,0,0-.27,0.42,0.42,0,1,1,.85,0,1.82,1.82,0,0,1-1.34,1.76l-0.07,0,1,0.37a0.43,0.43,0,0,1,.28.35,47.08,47.08,0,0,0,.81,4.8,50.35,50.35,0,0,0,1.83,5.37h0l0.24,0.59a0.42,0.42,0,0,1-.24.55,0.49,0.49,0,0,1-.16,0,0.43,0.43,0,0,1-.4-0.27,55.19,55.19,0,0,1-2.11-6.09,47,47,0,0,1-.79-4.64l-1.16-.42a3.76,3.76,0,0,1-2.67-1.38,0.48,0.48,0,0,1-.08-0.15l-0.81-3A0.43,0.43,0,0,1,287.09,412.57Zm8.61,12.66-0.09.41A0.41,0.41,0,0,1,295.69,425.23Z" transform="translate(-287 -410)"/></svg>